<svg xmlns="http://www.w3.org/2000/svg" xmlns:xlink="http://www.w3.org/1999/xlink" width="128" zoomAndPan="magnify" viewBox="0 0 96 95.999999" height="128" preserveAspectRatio="xMidYMid meet" version="1.0"><path fill="#ffffff" d="M 65.371094 59.199219 L 53.484375 59.199219 L 55.960938 50.972656 C 56.148438 50.363281 56.277344 49.742188 56.34375 49.105469 C 56.410156 48.472656 56.414062 47.839844 56.359375 47.203125 C 56.300781 46.566406 56.183594 45.945312 56.003906 45.332031 C 55.828125 44.71875 55.589844 44.132812 55.296875 43.566406 C 55.003906 43 54.660156 42.464844 54.265625 41.96875 C 53.867188 41.46875 53.425781 41.011719 52.941406 40.597656 C 52.457031 40.183594 51.9375 39.820312 51.378906 39.507812 C 50.824219 39.199219 50.242188 38.941406 49.636719 38.742188 C 49.285156 38.628906 48.925781 38.546875 48.558594 38.507812 C 48.191406 38.464844 47.824219 38.460938 47.457031 38.496094 C 47.089844 38.53125 46.726562 38.601562 46.375 38.710938 C 46.019531 38.820312 45.683594 38.964844 45.359375 39.144531 C 45.035156 39.320312 44.734375 39.53125 44.453125 39.773438 C 44.171875 40.015625 43.921875 40.28125 43.695312 40.574219 C 43.46875 40.867188 43.277344 41.179688 43.117188 41.515625 C 42.957031 41.847656 42.832031 42.195312 42.742188 42.550781 L 42.363281 44.152344 C 41.644531 47.035156 40.554688 49.769531 39.09375 52.355469 C 37.632812 54.941406 35.851562 57.289062 33.753906 59.390625 L 31.582031 61.523438 C 31.023438 60.820312 30.339844 60.269531 29.53125 59.878906 C 28.722656 59.484375 27.871094 59.28125 26.972656 59.277344 L 24.191406 59.277344 C 23.804688 59.277344 23.421875 59.3125 23.039062 59.386719 C 22.660156 59.464844 22.292969 59.574219 21.933594 59.722656 C 21.574219 59.867188 21.234375 60.046875 20.914062 60.261719 C 20.589844 60.476562 20.289062 60.71875 20.015625 60.988281 C 19.738281 61.261719 19.492188 61.558594 19.277344 61.878906 C 19.058594 62.199219 18.875 62.535156 18.722656 62.890625 C 18.570312 63.25 18.453125 63.617188 18.375 63.996094 C 18.296875 64.371094 18.253906 64.753906 18.246094 65.144531 L 18.246094 89.675781 C 18.246094 90.066406 18.285156 90.453125 18.363281 90.835938 C 18.4375 91.21875 18.550781 91.589844 18.699219 91.949219 C 18.847656 92.3125 19.03125 92.652344 19.25 92.976562 C 19.464844 93.300781 19.710938 93.601562 19.988281 93.878906 C 20.265625 94.15625 20.5625 94.402344 20.890625 94.617188 C 21.214844 94.835938 21.554688 95.015625 21.917969 95.167969 C 22.277344 95.316406 22.648438 95.429688 23.03125 95.503906 C 23.414062 95.582031 23.800781 95.617188 24.191406 95.617188 L 26.972656 95.617188 C 28.011719 95.617188 28.984375 95.355469 29.886719 94.839844 C 30.789062 94.324219 31.507812 93.617188 32.039062 92.722656 L 32.570312 92.992188 C 36.0625 94.734375 39.757812 95.609375 43.65625 95.617188 L 57.332031 95.617188 C 58.464844 95.625 59.578125 95.492188 60.675781 95.21875 C 61.773438 94.949219 62.820312 94.546875 63.816406 94.015625 C 64.816406 93.484375 65.730469 92.835938 66.570312 92.078125 C 67.40625 91.316406 68.136719 90.464844 68.761719 89.523438 C 70.09375 87.535156 71.105469 85.394531 71.800781 83.101562 C 72.492188 80.8125 72.839844 78.46875 72.839844 76.078125 L 72.839844 66.589844 C 72.839844 66.101562 72.789062 65.617188 72.695312 65.140625 C 72.597656 64.660156 72.457031 64.195312 72.269531 63.746094 C 72.082031 63.292969 71.851562 62.867188 71.578125 62.460938 C 71.304688 62.054688 70.992188 61.679688 70.648438 61.335938 C 70.300781 60.992188 69.921875 60.6875 69.515625 60.417969 C 69.105469 60.148438 68.675781 59.925781 68.222656 59.742188 C 67.769531 59.558594 67.304688 59.417969 66.824219 59.328125 C 66.34375 59.238281 65.859375 59.195312 65.371094 59.199219 Z M 28.953125 89.675781 C 28.953125 89.960938 28.898438 90.230469 28.789062 90.492188 C 28.683594 90.753906 28.527344 90.984375 28.328125 91.183594 C 28.128906 91.382812 27.898438 91.539062 27.636719 91.648438 C 27.375 91.753906 27.101562 91.808594 26.820312 91.808594 L 24.191406 91.808594 C 23.90625 91.808594 23.636719 91.753906 23.375 91.648438 C 23.113281 91.539062 22.882812 91.382812 22.683594 91.183594 C 22.480469 90.984375 22.328125 90.753906 22.21875 90.492188 C 22.109375 90.230469 22.058594 89.960938 22.058594 89.675781 L 22.058594 65.144531 C 22.058594 64.859375 22.109375 64.585938 22.21875 64.328125 C 22.328125 64.066406 22.480469 63.835938 22.683594 63.632812 C 22.882812 63.433594 23.113281 63.28125 23.375 63.171875 C 23.636719 63.0625 23.90625 63.007812 24.191406 63.007812 L 26.972656 63.007812 C 27.242188 63.027344 27.496094 63.097656 27.742188 63.214844 C 27.984375 63.332031 28.199219 63.488281 28.382812 63.6875 C 28.566406 63.882812 28.707031 64.109375 28.804688 64.359375 C 28.902344 64.613281 28.953125 64.871094 28.953125 65.144531 Z M 68.953125 76.078125 C 68.960938 78.109375 68.671875 80.097656 68.089844 82.046875 C 67.503906 83.992188 66.648438 85.8125 65.523438 87.503906 C 65.074219 88.179688 64.546875 88.785156 63.949219 89.332031 C 63.347656 89.875 62.691406 90.335938 61.976562 90.71875 C 61.261719 91.101562 60.511719 91.390625 59.726562 91.589844 C 58.941406 91.785156 58.144531 91.886719 57.332031 91.886719 L 43.65625 91.886719 C 40.359375 91.882812 37.238281 91.144531 34.285156 89.675781 L 32.761719 88.914062 L 32.761719 65.523438 L 36.265625 62.019531 C 38.609375 59.675781 40.601562 57.0625 42.238281 54.175781 C 43.875 51.292969 45.09375 48.242188 45.90625 45.027344 L 46.285156 43.464844 C 46.402344 43.03125 46.65625 42.703125 47.046875 42.476562 C 47.453125 42.300781 47.859375 42.300781 48.265625 42.476562 C 48.640625 42.601562 49 42.761719 49.34375 42.957031 C 49.6875 43.152344 50.011719 43.378906 50.308594 43.640625 C 50.609375 43.898438 50.878906 44.183594 51.121094 44.496094 C 51.363281 44.808594 51.574219 45.140625 51.75 45.496094 C 51.929688 45.851562 52.070312 46.21875 52.171875 46.597656 C 52.277344 46.980469 52.34375 47.367188 52.371094 47.761719 C 52.398438 48.15625 52.386719 48.550781 52.339844 48.945312 C 52.289062 49.335938 52.203125 49.71875 52.078125 50.09375 L 48.875 60.800781 C 48.699219 61.410156 48.800781 61.96875 49.179688 62.476562 C 49.554688 62.996094 50.0625 63.25 50.703125 63.238281 L 65.144531 63.238281 C 65.617188 63.238281 66.074219 63.328125 66.511719 63.511719 C 66.953125 63.691406 67.339844 63.949219 67.675781 64.285156 C 68.011719 64.621094 68.269531 65.011719 68.453125 65.449219 C 68.632812 65.886719 68.722656 66.34375 68.722656 66.820312 Z M 68.953125 76.078125 " fill-opacity="1" fill-rule="nonzero"/><path fill="#ffffff" d="M 36.570312 22.476562 L 35.351562 29.523438 C 35.277344 29.914062 35.261719 30.304688 35.300781 30.699219 C 35.339844 31.097656 35.433594 31.476562 35.582031 31.84375 C 35.730469 32.214844 35.929688 32.554688 36.175781 32.863281 C 36.421875 33.175781 36.703125 33.445312 37.027344 33.675781 C 37.761719 34.222656 38.589844 34.503906 39.503906 34.515625 C 40.203125 34.503906 40.863281 34.339844 41.484375 34.019531 L 48 30.667969 L 54.363281 34.019531 C 55.074219 34.394531 55.835938 34.554688 56.640625 34.492188 C 57.445312 34.429688 58.171875 34.15625 58.820312 33.675781 C 59.472656 33.210938 59.949219 32.605469 60.253906 31.863281 C 60.554688 31.117188 60.636719 30.351562 60.496094 29.5625 L 59.429688 22.476562 L 64.417969 17.523438 C 65.007812 16.96875 65.402344 16.296875 65.601562 15.511719 C 65.800781 14.726562 65.773438 13.949219 65.523438 13.179688 C 65.273438 12.414062 64.839844 11.769531 64.222656 11.246094 C 63.601562 10.726562 62.894531 10.40625 62.09375 10.285156 L 54.972656 9.257812 L 51.808594 2.742188 C 51.445312 2.023438 50.921875 1.453125 50.238281 1.03125 C 49.550781 0.609375 48.804688 0.398438 48 0.398438 C 47.195312 0.398438 46.449219 0.609375 45.761719 1.03125 C 45.078125 1.453125 44.554688 2.023438 44.191406 2.742188 L 41.027344 9.179688 L 33.90625 10.210938 C 33.105469 10.328125 32.398438 10.648438 31.777344 11.171875 C 31.160156 11.691406 30.726562 12.335938 30.476562 13.105469 C 30.34375 13.488281 30.269531 13.878906 30.253906 14.285156 C 30.238281 14.6875 30.277344 15.085938 30.375 15.476562 C 30.472656 15.871094 30.625 16.238281 30.832031 16.585938 C 31.035156 16.9375 31.285156 17.246094 31.582031 17.523438 Z M 34.285156 13.980469 L 42.398438 12.800781 C 42.773438 12.824219 43.125 12.742188 43.449219 12.554688 C 43.777344 12.367188 44.023438 12.105469 44.191406 11.769531 L 48 4.417969 C 48.074219 4.257812 48.203125 4.175781 48.382812 4.175781 C 48.558594 4.175781 48.6875 4.257812 48.761719 4.417969 L 52.570312 11.769531 C 52.710938 12.054688 52.910156 12.285156 53.164062 12.46875 C 53.421875 12.652344 53.707031 12.761719 54.019531 12.800781 L 62.132812 13.980469 C 62.304688 14.015625 62.421875 14.117188 62.476562 14.285156 C 62.558594 14.425781 62.558594 14.566406 62.476562 14.703125 L 56.609375 20.417969 C 56.132812 20.894531 55.941406 21.464844 56.039062 22.132812 L 57.449219 30.171875 C 57.472656 30.253906 57.46875 30.335938 57.433594 30.417969 C 57.398438 30.496094 57.339844 30.554688 57.257812 30.589844 C 57.105469 30.703125 56.953125 30.703125 56.800781 30.589844 L 49.5625 26.78125 C 49.289062 26.628906 48.996094 26.550781 48.6875 26.550781 C 48.375 26.550781 48.082031 26.628906 47.808594 26.78125 L 40.535156 30.589844 C 40.394531 30.699219 40.253906 30.699219 40.113281 30.589844 C 40.035156 30.554688 39.976562 30.496094 39.9375 30.417969 C 39.902344 30.335938 39.898438 30.253906 39.921875 30.171875 L 41.332031 22.132812 C 41.429688 21.464844 41.238281 20.894531 40.761719 20.417969 L 34.894531 14.703125 C 34.816406 14.566406 34.816406 14.425781 34.894531 14.285156 C 34.667969 14.296875 34.515625 14.195312 34.4375 13.980469 Z M 34.285156 13.980469 " fill-opacity="1" fill-rule="nonzero"/><path fill="#ffffff" d="M 22.628906 45.144531 C 22.914062 45.148438 23.191406 45.121094 23.472656 45.0625 C 23.75 45.007812 24.015625 44.917969 24.273438 44.800781 C 24.535156 44.683594 24.777344 44.539062 25 44.367188 C 25.226562 44.195312 25.433594 44.003906 25.613281 43.785156 C 25.796875 43.566406 25.953125 43.332031 26.082031 43.082031 C 26.214844 42.828125 26.3125 42.566406 26.386719 42.289062 C 26.457031 42.015625 26.496094 41.738281 26.503906 41.453125 C 26.515625 41.167969 26.492188 40.886719 26.4375 40.609375 L 25.410156 34.820312 L 29.675781 30.667969 C 30.226562 30.164062 30.59375 29.550781 30.785156 28.832031 C 30.972656 28.109375 30.953125 27.394531 30.726562 26.6875 C 30.496094 25.976562 30.09375 25.386719 29.515625 24.914062 C 28.941406 24.441406 28.28125 24.164062 27.542969 24.078125 L 21.714844 23.238281 L 19.085938 17.941406 C 18.730469 17.324219 18.242188 16.832031 17.621094 16.476562 C 17 16.117188 16.335938 15.9375 15.617188 15.9375 C 14.902344 15.9375 14.234375 16.117188 13.617188 16.476562 C 12.996094 16.832031 12.507812 17.324219 12.152344 17.941406 L 9.523438 23.238281 L 3.695312 24.078125 C 2.957031 24.164062 2.296875 24.441406 1.722656 24.914062 C 1.144531 25.386719 0.742188 25.976562 0.511719 26.6875 C 0.285156 27.394531 0.265625 28.109375 0.453125 28.832031 C 0.644531 29.550781 1.011719 30.164062 1.5625 30.667969 L 5.789062 34.820312 L 4.761719 40.609375 C 4.628906 41.34375 4.699219 42.054688 4.984375 42.742188 C 5.265625 43.433594 5.714844 43.992188 6.324219 44.417969 C 6.917969 44.855469 7.585938 45.097656 8.324219 45.144531 C 9.058594 45.191406 9.753906 45.039062 10.398438 44.6875 L 15.617188 41.941406 L 20.839844 44.6875 C 21.398438 44.988281 21.992188 45.140625 22.628906 45.144531 Z M 15.617188 37.90625 C 15.304688 37.902344 15.015625 37.980469 14.742188 38.132812 L 8.535156 41.257812 L 9.90625 34.476562 C 9.949219 33.773438 9.695312 33.199219 9.144531 32.761719 L 4.230469 27.847656 L 11.085938 26.855469 C 11.394531 26.820312 11.671875 26.710938 11.925781 26.527344 C 12.175781 26.34375 12.367188 26.109375 12.496094 25.828125 L 15.65625 19.617188 L 18.742188 25.828125 C 18.871094 26.109375 19.0625 26.34375 19.3125 26.527344 C 19.566406 26.710938 19.84375 26.820312 20.152344 26.855469 L 27.007812 27.960938 L 22.09375 32.761719 C 21.617188 33.238281 21.429688 33.808594 21.523438 34.476562 L 22.628906 41.332031 L 16.496094 38.132812 C 16.222656 37.980469 15.929688 37.902344 15.617188 37.90625 Z M 15.617188 37.90625 " fill-opacity="1" fill-rule="nonzero"/><path fill="#ffffff" d="M 95.429688 26.703125 C 95.207031 26 94.8125 25.410156 94.25 24.9375 C 93.683594 24.460938 93.035156 24.175781 92.304688 24.078125 L 86.476562 23.238281 L 83.847656 17.941406 C 83.492188 17.324219 83.003906 16.832031 82.382812 16.476562 C 81.765625 16.117188 81.097656 15.9375 80.382812 15.9375 C 79.664062 15.9375 79 16.117188 78.378906 16.476562 C 77.757812 16.832031 77.269531 17.324219 76.914062 17.941406 L 74.285156 23.238281 L 68.457031 24.078125 C 67.71875 24.164062 67.058594 24.441406 66.484375 24.914062 C 65.90625 25.386719 65.503906 25.976562 65.273438 26.6875 C 65.046875 27.394531 65.027344 28.109375 65.214844 28.832031 C 65.40625 29.550781 65.773438 30.164062 66.324219 30.667969 L 70.550781 34.820312 L 69.523438 40.609375 C 69.390625 41.34375 69.464844 42.054688 69.746094 42.742188 C 70.027344 43.433594 70.476562 43.992188 71.085938 44.417969 C 71.683594 44.855469 72.347656 45.097656 73.085938 45.144531 C 73.820312 45.191406 74.515625 45.039062 75.160156 44.6875 L 80.382812 41.941406 L 85.601562 44.6875 C 86.160156 44.988281 86.753906 45.140625 87.390625 45.144531 C 87.675781 45.148438 87.953125 45.121094 88.234375 45.0625 C 88.511719 45.007812 88.777344 44.917969 89.039062 44.800781 C 89.296875 44.683594 89.539062 44.539062 89.761719 44.367188 C 89.988281 44.195312 90.195312 44.003906 90.375 43.785156 C 90.558594 43.566406 90.714844 43.332031 90.84375 43.082031 C 90.976562 42.828125 91.078125 42.566406 91.148438 42.289062 C 91.21875 42.015625 91.257812 41.738281 91.269531 41.453125 C 91.277344 41.167969 91.253906 40.886719 91.199219 40.609375 L 90.171875 34.820312 L 94.398438 30.667969 C 94.941406 30.164062 95.304688 29.550781 95.492188 28.835938 C 95.675781 28.121094 95.65625 27.410156 95.429688 26.703125 Z M 86.855469 32.761719 C 86.378906 33.238281 86.191406 33.808594 86.285156 34.476562 L 87.390625 41.332031 L 81.257812 38.132812 C 80.984375 37.980469 80.691406 37.90625 80.382812 37.90625 C 80.070312 37.90625 79.777344 37.980469 79.503906 38.132812 L 73.296875 41.257812 L 74.667969 34.476562 C 74.710938 33.773438 74.457031 33.199219 73.90625 32.761719 L 68.992188 27.847656 L 75.847656 26.855469 C 76.15625 26.820312 76.433594 26.710938 76.6875 26.527344 C 76.9375 26.34375 77.128906 26.109375 77.257812 25.828125 L 80.417969 19.617188 L 83.503906 25.828125 C 83.632812 26.109375 83.824219 26.34375 84.074219 26.527344 C 84.328125 26.710938 84.605469 26.820312 84.914062 26.855469 L 91.769531 27.960938 Z M 86.855469 32.761719 " fill-opacity="1" fill-rule="nonzero"/></svg>