<svg xmlns="http://www.w3.org/2000/svg"
     xmlns:xlink="http://www.w3.org/1999/xlink"
     width="128"
     zoomAndPan="magnify"
     viewBox="0 0 96 95.999999"
     height="128"
     preserveAspectRatio="xMidYMid meet"
     version="1.0">
 
    <path fill="#ffffff"
          d="M 32.113281 43.667969 L 51.839844 29.417969 L 51.835938 29.414062 C 52.480469 28.953125 53.375 29.097656 53.835938 29.738281 C 54.019531 29.992188 54.109375 30.285156 54.109375 30.578125 L 54.109375 82.128906 C 54.109375 82.917969 53.46875 83.558594 52.675781 83.558594 C 52.320312 83.558594 51.992188 83.429688 51.742188 83.210938 L 32.015625 68.964844 L 32.847656 67.808594 L 32.007812 68.96875 C 31.621094 68.691406 31.417969 68.25 31.414062 67.808594 L 31.414062 44.894531 C 31.414062 44.375 31.695312 43.917969 32.113281 43.667969 "
          fill-opacity="1"
          fill-rule="nonzero" />
    <path fill="#ffffff"
          d="M 14.542969 43.464844 L 32.847656 43.464844 C 33.640625 43.464844 34.28125 44.105469 34.28125 44.894531 L 34.28125 67.808594 C 34.28125 68.597656 33.640625 69.238281 32.847656 69.238281 L 14.542969 69.238281 C 13.753906 69.238281 13.113281 68.597656 13.113281 67.808594 L 13.113281 44.894531 C 13.113281 44.105469 13.753906 43.464844 14.542969 43.464844 "
          fill-opacity="1"
          fill-rule="nonzero" />
    <path fill="#ffffff"
          d="M 83.21875 15.988281 C 81.929688 15.988281 80.882812 17.035156 80.882812 18.328125 C 80.882812 19.621094 81.929688 20.667969 83.21875 20.667969 L 91.484375 20.667969 C 92.773438 20.667969 93.820312 19.621094 93.820312 18.328125 C 93.820312 17.035156 92.773438 15.988281 91.484375 15.988281 Z M 4.511719 15.988281 C 3.222656 15.988281 2.175781 17.035156 2.175781 18.328125 C 2.175781 19.621094 3.222656 20.667969 4.511719 20.667969 L 74.929688 20.667969 C 76.21875 20.667969 77.265625 19.621094 77.265625 18.328125 C 77.265625 17.035156 76.21875 15.988281 74.929688 15.988281 L 4.511719 15.988281 "
          fill-opacity="1"
          fill-rule="nonzero" />
    <path fill="#ffffff"
          d="M 79.058594 24.675781 C 82.554688 24.675781 85.40625 21.824219 85.40625 18.328125 C 85.40625 14.832031 82.554688 11.980469 79.058594 11.980469 C 75.5625 11.980469 72.714844 14.832031 72.714844 18.328125 C 72.714844 21.824219 75.5625 24.675781 79.058594 24.675781 "
          fill-opacity="1"
          fill-rule="evenodd" />
    <path fill="#ffffff"
          d="M 69.875 25.574219 C 74.210938 28.929688 77.796875 33.5 80.273438 38.867188 C 82.679688 44.070312 84.042969 50.023438 84.042969 56.339844 C 84.042969 62.65625 82.675781 68.613281 80.273438 73.816406 C 77.792969 79.195312 74.195312 83.773438 69.84375 87.132812 L 67.53125 83.988281 C 71.351562 81.023438 74.523438 76.960938 76.730469 72.183594 C 78.898438 67.484375 80.132812 62.085938 80.132812 56.339844 C 80.132812 50.59375 78.898438 45.199219 76.730469 40.5 C 74.53125 35.730469 71.371094 31.679688 67.558594 28.714844 L 69.875 25.574219 "
          fill-opacity="1"
          fill-rule="nonzero" />
    <path fill="#ffffff"
          d="M 65.441406 31.589844 C 68.972656 34.292969 71.886719 37.988281 73.890625 42.335938 C 75.816406 46.511719 76.910156 51.28125 76.910156 56.339844 C 76.910156 61.402344 75.816406 66.171875 73.890625 70.347656 C 71.878906 74.699219 68.960938 78.402344 65.421875 81.105469 L 65.027344 80.585938 L 63.101562 77.972656 C 66.113281 75.65625 68.613281 72.472656 70.347656 68.710938 C 72.039062 65.046875 73 60.832031 73 56.339844 C 73 51.851562 72.039062 47.636719 70.347656 43.972656 C 68.617188 40.222656 66.128906 37.046875 63.128906 34.730469 L 65.441406 31.589844 "
          fill-opacity="1"
          fill-rule="nonzero" />
    <path fill="#ffffff"
          d="M 60.683594 38.058594 C 63.394531 40.140625 65.636719 42.980469 67.175781 46.320312 C 68.652344 49.519531 69.492188 53.179688 69.492188 57.054688 C 69.492188 60.929688 68.652344 64.585938 67.175781 67.789062 C 65.757812 70.863281 63.742188 73.519531 61.3125 75.542969 L 58.859375 72.210938 C 60.734375 70.597656 62.300781 68.496094 63.425781 66.058594 C 64.65625 63.394531 65.355469 60.324219 65.355469 57.054688 C 65.355469 53.78125 64.65625 50.714844 63.425781 48.050781 C 62.175781 45.34375 60.386719 43.054688 58.234375 41.382812 L 60.683594 38.058594 "
          fill-opacity="1"
          fill-rule="nonzero" />
</svg>